# xmcd CD database file
#
# Track frame offsets:
#	150
#	14660
#	29972
#	42070
#	61267
#	73117
#	91775
#	108875
#	123290
#	137772
#
# Disc length: 2106 seconds
#
# Revision: 0
# Processed by: cddbd v1.4b42PL1 Copyright (c) Steve Scherf et al.
# Submitted via: CDex 1.40Beta8
#
DISCID=8708380a
DTITLE=Rick Blair - Rick Blair
DYEAR=2001
DGENRE=Country
TTITLE0=What's In It For Me?
TTITLE1=Do I Go Crazy?
TTITLE2=If You're Leaving Me (Can I Go Too?)
TTITLE3=Sleepless Nights
TTITLE4=Where I Want To Be
TTITLE5=Blue Sky Jane
TTITLE6=The Man In The Glass
TTITLE7=What A Difference
TTITLE8=I Wish I Had My Money Back
TTITLE9=Coal Dust
EXTD=YEAR: 2001 ID3G: 2
EXTT0=
EXTT1=
EXTT2=
EXTT3=
EXTT4=
EXTT5=
EXTT6=
EXTT7=
EXTT8=
EXTT9=
PLAYORDER=
